<!--?xml version="1.0" standalone="no"?-->              <svg id="sw-js-blob-svg" viewBox="0 0 100 100" xmlns="http://www.w3.org/2000/svg">                    <defs>                         <linearGradient id="sw-gradient" x1="0" x2="1" y1="1" y2="0">                            <stop id="stop1" stop-color="rgba(3, 4, 94, 1)" offset="0%"></stop>                            <stop id="stop2" stop-color="rgba(202, 240, 248, 1)" offset="100%"></stop>                        </linearGradient>                    </defs>                <path fill="url(#sw-gradient)" d="M19.4,-24.9C27.1,-21.1,36.7,-18.1,38.2,-12.6C39.7,-7.1,33.2,0.8,28.4,7.3C23.6,13.7,20.4,18.8,16,24.3C11.5,29.9,5.8,35.9,-0.1,36.1C-6,36.2,-11.9,30.4,-18,25.4C-24.1,20.4,-30.3,16.1,-30.8,10.9C-31.4,5.6,-26.2,-0.6,-23.2,-6.9C-20.3,-13.3,-19.7,-19.8,-16.2,-24.9C-12.7,-30,-6.4,-33.8,-0.2,-33.4C5.9,-33.1,11.7,-28.6,19.4,-24.9Z" width="100%" height="100%" transform="translate(50 50)" style="transition: all 0.3s ease 0s;" stroke-width="0" stroke="url(#sw-gradient)"></path>              </svg>